# xmcd
#
# Track frame offsets: 
#        150
#        11062
#        27712
#        44850
#        64387
#        80700
#        93375
#        113700
#        126187
#        143025
#        156562
#        173100
#
# Disc length: 2969 seconds
#
# Revision: 4
# Processed by: cddbd v1.5.2PL0 Copyright (c) Steve Scherf et al.
# Submitted via: ExactAudioCopy v1.0b3
#
DISCID=b20b970c
DTITLE=Monster Mike Welch - These Blues Are Mine
DYEAR=1996
DGENRE=Blues
TTITLE0=Freezer Burn
TTITLE1=These Blues Are Mine
TTITLE2=It Might Not Be Me
TTITLE3=I Forget
TTITLE4=Texas Girl
TTITLE5=Lover And A Friend
TTITLE6=Jessie's Blues
TTITLE7=Looking Back
TTITLE8=Honest Love
TTITLE9=Keep On Doing
TTITLE10=Leroy's Mood
TTITLE11=Cold Poison
EXTD=YEAR: 1996
EXTT0=
EXTT1=
EXTT2=
EXTT3=
EXTT4=
EXTT5=
EXTT6=
EXTT7=
EXTT8=
EXTT9=
EXTT10=
EXTT11=
PLAYORDER=
